<svg width="35" height="27" viewBox="0 0 35 27" fill="none" xmlns="http://www.w3.org/2000/svg">
<path d="M1.51447 1.49655L1.51532 1.49573C2.06807 0.961815 2.71675 0.7 3.5 0.7H13.7175L17.0141 3.87889L17.2175 4.075H17.5H31.5C32.2833 4.075 32.9328 4.33685 33.4869 4.87114C34.0387 5.4033 34.3 6.01723 34.3 6.75V23.625C34.3 24.3576 34.0388 24.9722 33.4869 25.5055C32.933 26.0386 32.2835 26.3 31.5 26.3H3.5C2.71638 26.3 2.06756 26.0385 1.5149 25.5055C0.961586 24.972 0.7 24.3574 0.7 23.625V3.375C0.7 2.64264 0.961539 2.02883 1.51447 1.49655L1.51447 1.49655Z" stroke="#417FE4" stroke-width="1.4"/>
</svg>
