<svg width="29" height="29" viewBox="0 0 29 29" fill="none" xmlns="http://www.w3.org/2000/svg">
<path d="M14.5 2.41666C12.9132 2.41666 11.3419 2.72921 9.87591 3.33645C8.4099 3.9437 7.07784 4.83375 5.9558 5.95579C3.68973 8.22186 2.41667 11.2953 2.41667 14.5C2.41667 19.8408 5.88459 24.3721 10.6817 25.9792C11.2858 26.0758 11.4792 25.7012 11.4792 25.375V23.3329C8.13209 24.0579 7.41917 21.7137 7.41917 21.7137C6.86334 20.3121 6.07792 19.9375 6.07792 19.9375C4.97834 19.1883 6.1625 19.2125 6.1625 19.2125C7.37084 19.2971 8.01125 20.4571 8.01125 20.4571C9.0625 22.2937 10.8388 21.75 11.5275 21.46C11.6363 20.6746 11.9504 20.1429 12.2888 19.8408C9.60625 19.5387 6.79084 18.4996 6.79084 13.8958C6.79084 12.5546 7.25 11.4792 8.03542 10.6212C7.91459 10.3192 7.49167 9.0625 8.15625 7.43125C8.15625 7.43125 9.17125 7.105 11.4792 8.66375C12.4338 8.39791 13.4729 8.265 14.5 8.265C15.5271 8.265 16.5663 8.39791 17.5208 8.66375C19.8288 7.105 20.8438 7.43125 20.8438 7.43125C21.5083 9.0625 21.0854 10.3192 20.9646 10.6212C21.75 11.4792 22.2092 12.5546 22.2092 13.8958C22.2092 18.5117 19.3817 19.5267 16.6871 19.8287C17.1221 20.2033 17.5208 20.9404 17.5208 22.0642V25.375C17.5208 25.7012 17.7142 26.0879 18.3304 25.9792C23.1275 24.36 26.5833 19.8408 26.5833 14.5C26.5833 12.9132 26.2708 11.3419 25.6635 9.87591C25.0563 8.40989 24.1663 7.07783 23.0442 5.95579C21.9222 4.83375 20.5901 3.9437 19.1241 3.33645C17.6581 2.72921 16.0868 2.41666 14.5 2.41666Z" fill="#D5D5D5"/>
</svg>
