<svg width="18" height="20" viewBox="0 0 18 20" fill="none" xmlns="http://www.w3.org/2000/svg">
<path d="M3.1391 16.4606C2.82986 16.2568 2.56392 15.997 2.25262 15.6292C2.09104 15.4337 1.93092 15.2371 1.77227 15.0393C1.29502 14.4534 0.994025 14.1834 0.682727 14.0723C0.425337 13.981 0.215197 13.7923 0.0985335 13.5478C-0.0181294 13.3033 -0.0317583 13.023 0.060645 12.7686C0.153048 12.5142 0.343915 12.3065 0.591256 12.1912C0.838597 12.0758 1.12215 12.0624 1.37954 12.1537C2.1547 12.4288 2.67937 12.9026 3.38649 13.7717C3.2896 13.6525 3.73696 14.2068 3.83282 14.3209C4.02867 14.5522 4.17298 14.6928 4.28637 14.7672C4.49665 14.9068 4.89144 14.9669 5.47178 14.9099C5.49549 14.5206 5.56867 14.1426 5.68 13.7942C2.62061 13.0544 0.888885 11.1042 0.888885 7.27724C0.888885 6.0138 1.27028 4.8767 1.97946 3.92301C1.75475 3.01211 1.78876 1.91067 2.29076 0.670663C2.34773 0.530396 2.43556 0.404415 2.54788 0.301849C2.6602 0.199284 2.79419 0.122705 2.94016 0.0776612C3.02365 0.0532075 3.07107 0.0419996 3.15456 0.0297728C3.98229 -0.0955525 5.1512 0.202986 6.67471 1.14649C7.58263 0.936682 8.51205 0.831375 9.44444 0.832669C10.3845 0.832669 11.3184 0.938635 12.2111 1.14649C13.7336 0.195854 14.9045 -0.102685 15.7385 0.0297728C15.8261 0.0430185 15.9003 0.0603398 15.9632 0.0807179C16.1063 0.12736 16.2373 0.204447 16.347 0.306551C16.4567 0.408654 16.5424 0.533291 16.5981 0.671683C17.1001 1.91067 17.1341 3.01211 16.9094 3.92199C17.6217 4.87568 18 6.00565 18 7.27724C18 11.1053 16.2745 13.0493 13.2151 13.7901C13.3439 14.2129 13.4109 14.6857 13.4109 15.1962C13.411 16.1186 13.4069 17.0411 13.3986 17.9635C13.63 18.0134 13.8371 18.1406 13.9848 18.3238C14.1325 18.5069 14.2119 18.7347 14.2096 18.9689C14.2073 19.2031 14.1235 19.4293 13.9722 19.6096C13.8209 19.7898 13.6114 19.9131 13.379 19.9585C12.2049 20.1908 11.3349 19.4165 11.3349 18.4047L11.337 17.9503L11.3421 17.2319C11.3473 16.5105 11.3493 15.8686 11.3493 15.1962C11.3493 14.486 11.1607 14.0224 10.9113 13.8105C10.2299 13.2297 10.5752 12.1242 11.4679 12.0253C14.5262 11.686 15.9384 10.5153 15.9384 7.27724C15.9384 6.30419 15.6168 5.50027 14.9973 4.82779C14.8668 4.68641 14.7792 4.51155 14.7446 4.32324C14.7099 4.13493 14.7296 3.94078 14.8015 3.76304C14.9726 3.34121 15.0458 2.78795 14.9004 2.11853L14.8901 2.12158C14.384 2.26321 13.7459 2.5699 12.9749 3.08852C12.8506 3.17193 12.7093 3.22745 12.561 3.25121C12.4127 3.27497 12.2609 3.26639 12.1163 3.22608C11.2462 2.98794 10.3473 2.86831 9.44444 2.87048C8.52704 2.87048 7.61788 2.99173 6.77264 3.22709C6.62855 3.26709 6.47738 3.2756 6.32964 3.25202C6.18189 3.22844 6.04111 3.17335 5.91708 3.09056C5.14193 2.57398 4.50077 2.26831 3.99156 2.12566C3.84313 2.791 3.91632 3.34223 4.0864 3.76304C4.15835 3.94069 4.17824 4.13478 4.14379 4.32309C4.10933 4.5114 4.02193 4.68631 3.89158 4.82779C3.2762 5.49416 2.95047 6.31336 2.95047 7.27724C2.95047 10.5092 4.36368 11.6871 7.40554 12.0253C8.29717 12.1242 8.64352 13.2246 7.96629 13.8064C7.76838 13.9776 7.52408 14.5522 7.52408 15.1962V18.4057C7.52408 19.4104 6.66337 20.1633 5.50373 19.9626C5.26847 19.9218 5.05486 19.8014 4.8994 19.6222C4.74394 19.4429 4.65628 19.2159 4.65141 18.9798C4.64655 18.7438 4.72477 18.5134 4.8727 18.328C5.02064 18.1426 5.22912 18.0138 5.4625 17.9635V16.9548C4.52448 17.0169 3.74933 16.8651 3.1391 16.4606Z" fill="#B3B3B3"/>
</svg>
