<svg width="29" height="29" viewBox="0 0 29 29" fill="none" xmlns="http://www.w3.org/2000/svg">
<path d="M14.5 2.41666C17.783 2.41666 18.1927 2.42875 19.4807 2.48916C20.7676 2.54958 21.6437 2.75137 22.4146 3.05104C23.2121 3.35796 23.8839 3.77362 24.5557 4.44425C25.1702 5.04829 25.6456 5.77896 25.9489 6.58541C26.2474 7.35512 26.4504 8.23237 26.5108 9.51925C26.5676 10.8073 26.5833 11.217 26.5833 14.5C26.5833 17.783 26.5712 18.1927 26.5108 19.4807C26.4504 20.7676 26.2474 21.6437 25.9489 22.4146C25.6465 23.2215 25.1709 23.9523 24.5557 24.5557C23.9515 25.17 23.2209 25.6454 22.4146 25.949C21.6449 26.2474 20.7676 26.4504 19.4807 26.5108C18.1927 26.5676 17.783 26.5833 14.5 26.5833C11.2169 26.5833 10.8073 26.5712 9.51924 26.5108C8.23236 26.4504 7.35632 26.2474 6.58541 25.949C5.77863 25.6462 5.04784 25.1707 4.44424 24.5557C3.82969 23.9518 3.35424 23.2211 3.05103 22.4146C2.75136 21.6449 2.54957 20.7676 2.48916 19.4807C2.43236 18.1927 2.41666 17.783 2.41666 14.5C2.41666 11.217 2.42874 10.8073 2.48916 9.51925C2.54957 8.23116 2.75136 7.35633 3.05103 6.58541C3.3534 5.77846 3.82896 5.04759 4.44424 4.44425C5.04801 3.82949 5.77876 3.354 6.58541 3.05104C7.35632 2.75137 8.23116 2.54958 9.51924 2.48916C10.8073 2.43237 11.2169 2.41666 14.5 2.41666ZM14.5 8.45833C12.8976 8.45833 11.3609 9.09486 10.2279 10.2279C9.09485 11.3609 8.45832 12.8976 8.45832 14.5C8.45832 16.1023 9.09485 17.6391 10.2279 18.7721C11.3609 19.9051 12.8976 20.5417 14.5 20.5417C16.1023 20.5417 17.6391 19.9051 18.7721 18.7721C19.9051 17.6391 20.5417 16.1023 20.5417 14.5C20.5417 12.8976 19.9051 11.3609 18.7721 10.2279C17.6391 9.09486 16.1023 8.45833 14.5 8.45833ZM22.3542 8.15625C22.3542 7.75566 22.195 7.37148 21.9118 7.08822C21.6285 6.80496 21.2443 6.64583 20.8437 6.64583C20.4432 6.64583 20.059 6.80496 19.7757 7.08822C19.4925 7.37148 19.3333 7.75566 19.3333 8.15625C19.3333 8.55683 19.4925 8.94101 19.7757 9.22427C20.059 9.50753 20.4432 9.66666 20.8437 9.66666C21.2443 9.66666 21.6285 9.50753 21.9118 9.22427C22.195 8.94101 22.3542 8.55683 22.3542 8.15625ZM14.5 10.875C15.4614 10.875 16.3834 11.2569 17.0633 11.9367C17.7431 12.6166 18.125 13.5386 18.125 14.5C18.125 15.4614 17.7431 16.3834 17.0633 17.0633C16.3834 17.7431 15.4614 18.125 14.5 18.125C13.5386 18.125 12.6165 17.7431 11.9367 17.0633C11.2569 16.3834 10.875 15.4614 10.875 14.5C10.875 13.5386 11.2569 12.6166 11.9367 11.9367C12.6165 11.2569 13.5386 10.875 14.5 10.875Z" fill="#D5D5D5"/>
</svg>
