<svg width="19" height="19" viewBox="0 0 19 19" fill="none" xmlns="http://www.w3.org/2000/svg">
<path d="M11.6111 0V2.11111H15.4006L5.02444 12.4872L6.51278 13.9756L16.8889 3.59944V7.38889H19V0M16.8889 16.8889H2.11111V2.11111H9.5V0H2.11111C1.55121 0 1.01424 0.22242 0.61833 0.61833C0.22242 1.01424 0 1.55121 0 2.11111V16.8889C0 17.4488 0.22242 17.9858 0.61833 18.3817C1.01424 18.7776 1.55121 19 2.11111 19H16.8889C17.4488 19 17.9858 18.7776 18.3817 18.3817C18.7776 17.9858 19 17.4488 19 16.8889V9.5H16.8889V16.8889Z" fill="#B3B3B3"/>
</svg>
